# xmcd
#
# Track frame offsets:
#	150
#	17725
#	37884
#	57244
#	73804
#	96311
#	118500
#	138858
#
# Disc length: 2333 seconds
#
# Revision: 1
# Processed by: cddbd v1.4PL0 Copyright (c) Steve Scherf et al.
# Submitted via: audiograbber 1.81.03
#
DISCID=68091b08
DTITLE=Paul Gibbard - Nothing But Blue
DYEAR=2002
DGENRE=Blues
TTITLE0=Without You
TTITLE1=Fools Gold
TTITLE2=Too Much Love
TTITLE3=Together and Free
TTITLE4=Made Up
TTITLE5=Despite The Passing Of Time
TTITLE6=Inside You
TTITLE7=It Doesn't Matter
EXTD=
EXTT0=
EXTT1=
EXTT2=
EXTT3=
EXTT4=
EXTT5=
EXTT6=
EXTT7=
PLAYORDER=
